<svg xmlns="http://www.w3.org/2000/svg" xmlns:xlink="http://www.w3.org/1999/xlink" width="500" zoomAndPan="magnify" viewBox="0 0 375 374.999991" height="500" preserveAspectRatio="xMidYMid meet" version="1.2"><defs/><g id="726a399388"><g style="fill:#000000;fill-opacity:1;"><g transform="translate(23.091831, 205.13354)"><path style="stroke:none" d="M 59.15625 -24.109375 C 59.644531 -23.984375 59.976562 -23.648438 60.15625 -23.109375 C 60.332031 -22.578125 60.175781 -21.953125 59.6875 -21.234375 C 58.257812 -19.328125 56.132812 -17.351562 53.3125 -15.3125 C 50.5 -13.269531 47.429688 -11.578125 44.109375 -10.234375 C 40.785156 -8.890625 37.59375 -8.335938 34.53125 -8.578125 C 31.46875 -8.816406 28.984375 -10.25 27.078125 -12.875 C 26.617188 -13.53125 26.179688 -14.179688 25.765625 -14.828125 C 24.984375 -16.378906 23.945312 -17.804688 22.65625 -19.109375 C 21.09375 -20.523438 19.664062 -20.523438 18.375 -19.109375 C 15.875 -16.378906 13.878906 -13.347656 12.390625 -10.015625 C 11.679688 -8.359375 10.96875 -6.722656 10.25 -5.109375 C 9.769531 -3.867188 9.269531 -2.6875 8.75 -1.5625 C 7.488281 1.644531 5.253906 2.75 2.046875 1.75 C 0.453125 1.164062 -0.4375 0.0976562 -0.625 -1.453125 C -0.695312 -2.035156 -0.695312 -2.632812 -0.625 -3.25 C -0.625 -3.476562 -0.625 -3.707031 -0.625 -3.9375 C -0.4375 -10.0625 -0.226562 -16.1875 0 -22.3125 C 0.414062 -36.789062 0.914062 -51.257812 1.5 -65.71875 C 1.632812 -68.863281 1.734375 -72.003906 1.796875 -75.140625 C 2.023438 -81.335938 2.316406 -87.503906 2.671875 -93.640625 C 3.023438 -99.785156 3.5625 -105.914062 4.28125 -112.03125 C 4.632812 -114.46875 5.203125 -116.851562 5.984375 -119.1875 C 6.753906 -121.125 8.070312 -122.484375 9.9375 -123.265625 C 11.800781 -124.046875 13.742188 -124.203125 15.765625 -123.734375 C 17.796875 -123.265625 19.492188 -122.132812 20.859375 -120.34375 C 22.929688 -117.363281 24.113281 -114.0625 24.40625 -110.4375 C 25.539062 -99.09375 25.441406 -88.269531 24.109375 -77.96875 C 22.773438 -67.664062 20.472656 -57.101562 17.203125 -46.28125 C 15.296875 -39.863281 13.484375 -34.253906 11.765625 -29.453125 C 11.179688 -27.898438 10.675781 -26.523438 10.25 -25.328125 C 9.539062 -23.179688 9.1875 -21.84375 9.1875 -21.3125 C 9.1875 -20.78125 9.476562 -20.789062 10.0625 -21.34375 C 13.5625 -25.0625 17.179688 -26.847656 20.921875 -26.703125 C 24.671875 -26.554688 28.273438 -24.347656 31.734375 -20.078125 C 32.023438 -19.648438 32.316406 -19.210938 32.609375 -18.765625 C 33.453125 -17.628906 34.253906 -16.703125 35.015625 -15.984375 C 35.773438 -15.273438 36.613281 -14.859375 37.53125 -14.734375 C 39.894531 -14.367188 42.410156 -14.945312 45.078125 -16.46875 C 47.753906 -18 50.40625 -19.800781 53.03125 -21.875 C 55.75 -24.007812 57.789062 -24.753906 59.15625 -24.109375 Z M 15.5 -112.140625 C 15.28125 -113.628906 15.046875 -114.460938 14.796875 -114.640625 C 14.554688 -114.816406 14.3125 -114.617188 14.0625 -114.046875 C 13.820312 -113.484375 13.613281 -112.738281 13.4375 -111.8125 C 13.257812 -110.894531 13.113281 -110.035156 13 -109.234375 C 12.882812 -108.441406 12.796875 -107.953125 12.734375 -107.765625 C 12.378906 -102.960938 12.003906 -96.859375 11.609375 -89.453125 C 11.222656 -82.054688 10.851562 -74.710938 10.5 -67.421875 C 10.207031 -61.523438 9.957031 -56.507812 9.75 -52.375 C 9.539062 -48.238281 9.351562 -45.734375 9.1875 -44.859375 C 11.488281 -51.148438 13.207031 -58.691406 14.34375 -67.484375 C 15.476562 -76.285156 16.117188 -84.785156 16.265625 -92.984375 C 16.410156 -101.179688 16.15625 -107.566406 15.5 -112.140625 Z M 15.5 -112.140625 "/></g></g><g style="fill:#000000;fill-opacity:1;"><g transform="translate(77.81887, 205.13354)"><path style="stroke:none" d="M 59.15625 -24.109375 C 59.644531 -23.984375 59.976562 -23.648438 60.15625 -23.109375 C 60.332031 -22.578125 60.175781 -21.953125 59.6875 -21.234375 C 58.257812 -19.328125 56.132812 -17.351562 53.3125 -15.3125 C 50.5 -13.269531 47.429688 -11.578125 44.109375 -10.234375 C 40.785156 -8.890625 37.59375 -8.335938 34.53125 -8.578125 C 31.46875 -8.816406 28.984375 -10.25 27.078125 -12.875 C 26.617188 -13.53125 26.179688 -14.179688 25.765625 -14.828125 C 24.984375 -16.378906 23.945312 -17.804688 22.65625 -19.109375 C 21.09375 -20.523438 19.664062 -20.523438 18.375 -19.109375 C 15.875 -16.378906 13.878906 -13.347656 12.390625 -10.015625 C 11.679688 -8.359375 10.96875 -6.722656 10.25 -5.109375 C 9.769531 -3.867188 9.269531 -2.6875 8.75 -1.5625 C 7.488281 1.644531 5.253906 2.75 2.046875 1.75 C 0.453125 1.164062 -0.4375 0.0976562 -0.625 -1.453125 C -0.695312 -2.035156 -0.695312 -2.632812 -0.625 -3.25 C -0.625 -3.476562 -0.625 -3.707031 -0.625 -3.9375 C -0.4375 -10.0625 -0.226562 -16.1875 0 -22.3125 C 0.414062 -36.789062 0.914062 -51.257812 1.5 -65.71875 C 1.632812 -68.863281 1.734375 -72.003906 1.796875 -75.140625 C 2.023438 -81.335938 2.316406 -87.503906 2.671875 -93.640625 C 3.023438 -99.785156 3.5625 -105.914062 4.28125 -112.03125 C 4.632812 -114.46875 5.203125 -116.851562 5.984375 -119.1875 C 6.753906 -121.125 8.070312 -122.484375 9.9375 -123.265625 C 11.800781 -124.046875 13.742188 -124.203125 15.765625 -123.734375 C 17.796875 -123.265625 19.492188 -122.132812 20.859375 -120.34375 C 22.929688 -117.363281 24.113281 -114.0625 24.40625 -110.4375 C 25.539062 -99.09375 25.441406 -88.269531 24.109375 -77.96875 C 22.773438 -67.664062 20.472656 -57.101562 17.203125 -46.28125 C 15.296875 -39.863281 13.484375 -34.253906 11.765625 -29.453125 C 11.179688 -27.898438 10.675781 -26.523438 10.25 -25.328125 C 9.539062 -23.179688 9.1875 -21.84375 9.1875 -21.3125 C 9.1875 -20.78125 9.476562 -20.789062 10.0625 -21.34375 C 13.5625 -25.0625 17.179688 -26.847656 20.921875 -26.703125 C 24.671875 -26.554688 28.273438 -24.347656 31.734375 -20.078125 C 32.023438 -19.648438 32.316406 -19.210938 32.609375 -18.765625 C 33.453125 -17.628906 34.253906 -16.703125 35.015625 -15.984375 C 35.773438 -15.273438 36.613281 -14.859375 37.53125 -14.734375 C 39.894531 -14.367188 42.410156 -14.945312 45.078125 -16.46875 C 47.753906 -18 50.40625 -19.800781 53.03125 -21.875 C 55.75 -24.007812 57.789062 -24.753906 59.15625 -24.109375 Z M 15.5 -112.140625 C 15.28125 -113.628906 15.046875 -114.460938 14.796875 -114.640625 C 14.554688 -114.816406 14.3125 -114.617188 14.0625 -114.046875 C 13.820312 -113.484375 13.613281 -112.738281 13.4375 -111.8125 C 13.257812 -110.894531 13.113281 -110.035156 13 -109.234375 C 12.882812 -108.441406 12.796875 -107.953125 12.734375 -107.765625 C 12.378906 -102.960938 12.003906 -96.859375 11.609375 -89.453125 C 11.222656 -82.054688 10.851562 -74.710938 10.5 -67.421875 C 10.207031 -61.523438 9.957031 -56.507812 9.75 -52.375 C 9.539062 -48.238281 9.351562 -45.734375 9.1875 -44.859375 C 11.488281 -51.148438 13.207031 -58.691406 14.34375 -67.484375 C 15.476562 -76.285156 16.117188 -84.785156 16.265625 -92.984375 C 16.410156 -101.179688 16.15625 -107.566406 15.5 -112.140625 Z M 15.5 -112.140625 "/></g></g><g style="fill:#000000;fill-opacity:1;"><g transform="translate(132.54591, 205.13354)"><path style="stroke:none" d="M 44.53125 -24.453125 C 44.882812 -24.390625 45.125 -24.285156 45.25 -24.140625 C 45.382812 -23.992188 45.53125 -23.707031 45.6875 -23.28125 C 45.820312 -22.863281 45.675781 -22.363281 45.25 -21.78125 C 44.832031 -21.195312 44.445312 -20.722656 44.09375 -20.359375 C 41.425781 -17.867188 38.3125 -16.378906 34.75 -15.890625 C 32.707031 -15.597656 30.664062 -15.523438 28.625 -15.671875 C 26.582031 -15.816406 24.578125 -16.3125 22.609375 -17.15625 C 21.179688 -17.875 19.847656 -17.664062 18.609375 -16.53125 C 16.054688 -14.195312 13.382812 -11.957031 10.59375 -9.8125 C 9.164062 -8.75 7.664062 -7.859375 6.09375 -7.140625 C 4.53125 -6.429688 2.820312 -6.03125 0.96875 -5.9375 C -4.4375 -6.03125 -6.570312 -8.671875 -5.4375 -13.859375 C -5.375 -14.078125 -5.296875 -14.253906 -5.203125 -14.390625 C -3.648438 -18.597656 -1.59375 -22.394531 0.96875 -25.78125 C 3.53125 -29.164062 6.769531 -31.992188 10.6875 -34.265625 C 13.28125 -35.785156 16.066406 -36.367188 19.046875 -36.015625 C 19.828125 -35.859375 20.578125 -35.566406 21.296875 -35.140625 C 22.171875 -34.722656 22.523438 -34.039062 22.359375 -33.09375 C 22.296875 -32.800781 22.15625 -32.550781 21.9375 -32.34375 C 21.726562 -32.132812 21.515625 -31.929688 21.296875 -31.734375 C 21.160156 -31.578125 20.988281 -31.460938 20.78125 -31.390625 C 20.570312 -31.328125 20.351562 -31.296875 20.125 -31.296875 C 17.988281 -31.234375 16.148438 -30.609375 14.609375 -29.421875 C 13.066406 -28.242188 11.664062 -26.910156 10.40625 -25.421875 C 8.976562 -23.835938 7.65625 -22.085938 6.4375 -20.171875 C 5.226562 -18.253906 4.234375 -15.96875 3.453125 -13.3125 C 6.304688 -14.96875 8.539062 -16.609375 10.15625 -18.234375 C 10.507812 -18.585938 10.867188 -18.910156 11.234375 -19.203125 C 11.523438 -19.492188 11.816406 -19.753906 12.109375 -19.984375 C 13.523438 -21.304688 15.015625 -22.472656 16.578125 -23.484375 C 18.359375 -24.484375 20.125 -24.984375 21.875 -24.984375 C 23.625 -24.984375 25.328125 -24.269531 26.984375 -22.84375 C 29.242188 -20.832031 31.441406 -20.046875 33.578125 -20.484375 C 35.722656 -20.921875 37.71875 -21.675781 39.5625 -22.75 C 41.445312 -23.882812 43.101562 -24.453125 44.53125 -24.453125 Z M 44.53125 -24.453125 "/></g></g><g style="fill:#000000;fill-opacity:1;"><g transform="translate(173.712697, 205.13354)"><path style="stroke:none" d="M 43.21875 -22.9375 C 44.414062 -24.175781 45.472656 -24.664062 46.390625 -24.40625 C 47.316406 -24.144531 47.894531 -23.460938 48.125 -22.359375 C 48.351562 -21.253906 48.03125 -20.023438 47.15625 -18.671875 C 45.363281 -16.046875 42.847656 -13.21875 39.609375 -10.1875 C 36.367188 -7.15625 32.878906 -4.507812 29.140625 -2.25 C 25.398438 0 21.859375 1.21875 18.515625 1.40625 C 11.742188 1.757812 8.570312 -1.476562 9 -8.3125 C 9.0625 -9.21875 9.238281 -10.429688 9.53125 -11.953125 C 9.820312 -13.441406 10.054688 -14.882812 10.234375 -16.28125 C 10.410156 -17.675781 10.320312 -18.617188 9.96875 -19.109375 C 9.507812 -19.523438 8.992188 -19.734375 8.421875 -19.734375 C 7.859375 -19.734375 7.253906 -19.671875 6.609375 -19.546875 C 5.898438 -19.378906 5.238281 -19.34375 4.625 -19.4375 C 1.3125 -19.800781 -0.40625 -21.503906 -0.53125 -24.546875 C -0.59375 -28.753906 0.179688 -32.789062 1.796875 -36.65625 C 2.316406 -37.851562 3.289062 -38.644531 4.71875 -39.03125 C 6.144531 -39.414062 7.457031 -39.253906 8.65625 -38.546875 C 9.425781 -38.054688 9.78125 -37.390625 9.71875 -36.546875 C 9.59375 -35.378906 9.382812 -34.226562 9.09375 -33.09375 C 8.957031 -32.613281 8.84375 -32.113281 8.75 -31.59375 C 8.132812 -28.613281 8.140625 -27.066406 8.765625 -26.953125 C 9.398438 -26.835938 10.785156 -27.640625 12.921875 -29.359375 C 14.515625 -30.492188 16.265625 -30.960938 18.171875 -30.765625 C 20.734375 -30.535156 21.773438 -29.109375 21.296875 -26.484375 C 20.867188 -24.703125 20.429688 -22.890625 19.984375 -21.046875 C 19.003906 -17.253906 18.253906 -13.429688 17.734375 -9.578125 C 17.546875 -6.953125 18.019531 -5.421875 19.15625 -4.984375 C 20.289062 -4.546875 21.804688 -4.8125 23.703125 -5.78125 C 25.597656 -6.757812 27.585938 -8.066406 29.671875 -9.703125 C 31.765625 -11.335938 33.613281 -12.9375 35.21875 -14.5 C 36.820312 -16.070312 37.914062 -17.21875 38.5 -17.9375 C 38.789062 -18.289062 39.234375 -18.78125 39.828125 -19.40625 C 40.429688 -20.039062 41.054688 -20.6875 41.703125 -21.34375 C 42.421875 -22.050781 42.925781 -22.582031 43.21875 -22.9375 Z M 43.21875 -22.9375 "/></g></g><g style="fill:#000000;fill-opacity:1;"><g transform="translate(215.657133, 205.13354)"><path style="stroke:none" d="M 43.21875 -22.9375 C 44.414062 -24.175781 45.472656 -24.664062 46.390625 -24.40625 C 47.316406 -24.144531 47.894531 -23.460938 48.125 -22.359375 C 48.351562 -21.253906 48.03125 -20.023438 47.15625 -18.671875 C 45.363281 -16.046875 42.847656 -13.21875 39.609375 -10.1875 C 36.367188 -7.15625 32.878906 -4.507812 29.140625 -2.25 C 25.398438 0 21.859375 1.21875 18.515625 1.40625 C 11.742188 1.757812 8.570312 -1.476562 9 -8.3125 C 9.0625 -9.21875 9.238281 -10.429688 9.53125 -11.953125 C 9.820312 -13.441406 10.054688 -14.882812 10.234375 -16.28125 C 10.410156 -17.675781 10.320312 -18.617188 9.96875 -19.109375 C 9.507812 -19.523438 8.992188 -19.734375 8.421875 -19.734375 C 7.859375 -19.734375 7.253906 -19.671875 6.609375 -19.546875 C 5.898438 -19.378906 5.238281 -19.34375 4.625 -19.4375 C 1.3125 -19.800781 -0.40625 -21.503906 -0.53125 -24.546875 C -0.59375 -28.753906 0.179688 -32.789062 1.796875 -36.65625 C 2.316406 -37.851562 3.289062 -38.644531 4.71875 -39.03125 C 6.144531 -39.414062 7.457031 -39.253906 8.65625 -38.546875 C 9.425781 -38.054688 9.78125 -37.390625 9.71875 -36.546875 C 9.59375 -35.378906 9.382812 -34.226562 9.09375 -33.09375 C 8.957031 -32.613281 8.84375 -32.113281 8.75 -31.59375 C 8.132812 -28.613281 8.140625 -27.066406 8.765625 -26.953125 C 9.398438 -26.835938 10.785156 -27.640625 12.921875 -29.359375 C 14.515625 -30.492188 16.265625 -30.960938 18.171875 -30.765625 C 20.734375 -30.535156 21.773438 -29.109375 21.296875 -26.484375 C 20.867188 -24.703125 20.429688 -22.890625 19.984375 -21.046875 C 19.003906 -17.253906 18.253906 -13.429688 17.734375 -9.578125 C 17.546875 -6.953125 18.019531 -5.421875 19.15625 -4.984375 C 20.289062 -4.546875 21.804688 -4.8125 23.703125 -5.78125 C 25.597656 -6.757812 27.585938 -8.066406 29.671875 -9.703125 C 31.765625 -11.335938 33.613281 -12.9375 35.21875 -14.5 C 36.820312 -16.070312 37.914062 -17.21875 38.5 -17.9375 C 38.789062 -18.289062 39.234375 -18.78125 39.828125 -19.40625 C 40.429688 -20.039062 41.054688 -20.6875 41.703125 -21.34375 C 42.421875 -22.050781 42.925781 -22.582031 43.21875 -22.9375 Z M 43.21875 -22.9375 "/></g></g><g style="fill:#000000;fill-opacity:1;"><g transform="translate(257.601581, 205.13354)"><path style="stroke:none" d="M 51.953125 -24.640625 C 52.609375 -24.515625 53.054688 -24.125 53.296875 -23.46875 C 53.535156 -22.820312 53.445312 -22.257812 53.03125 -21.78125 C 50.113281 -18.695312 46.9375 -15.726562 43.5 -12.875 C 40.289062 -10.125 37.113281 -7.207031 33.96875 -4.125 C 32.125 -2.125 31.054688 0.222656 30.765625 2.921875 C 30.703125 3.335938 30.671875 3.773438 30.671875 4.234375 C 29.890625 11.191406 28.84375 18.753906 27.53125 26.921875 C 26.21875 35.085938 24.273438 42.96875 21.703125 50.5625 C 19.128906 58.164062 15.640625 64.59375 11.234375 69.84375 C 9.804688 71.5 8.203125 72.753906 6.421875 73.609375 C 4.640625 74.472656 2.597656 74.820312 0.296875 74.65625 C -4.597656 74.175781 -7.796875 72.347656 -9.296875 69.171875 C -10.804688 65.992188 -11.0625 61.945312 -10.0625 57.03125 C -9.0625 52.125 -7.296875 46.851562 -4.765625 41.21875 C -2.234375 35.582031 0.597656 30.085938 3.734375 24.734375 C 6.878906 19.390625 9.835938 14.703125 12.609375 10.671875 C 15.378906 6.640625 17.5625 3.726562 19.15625 1.9375 C 21.644531 -0.75 22.957031 -3.84375 23.09375 -7.34375 C 23.21875 -8.769531 23.328125 -10.191406 23.421875 -11.609375 C 23.679688 -14.171875 23.863281 -17.023438 23.96875 -20.171875 C 22.957031 -19.460938 22.066406 -18.863281 21.296875 -18.375 C 19.992188 -17.4375 18.804688 -16.640625 17.734375 -15.984375 C 14.597656 -14.140625 11.210938 -13.609375 7.578125 -14.390625 C 4.859375 -15.160156 2.914062 -16.703125 1.75 -19.015625 C 0.582031 -21.335938 0.015625 -23.925781 0.046875 -26.78125 C 0.078125 -29.632812 0.597656 -32.175781 1.609375 -34.40625 C 2.253906 -35.832031 3.304688 -36.738281 4.765625 -37.125 C 6.222656 -37.519531 7.632812 -37.328125 9 -36.546875 C 9.1875 -36.390625 9.367188 -36.148438 9.546875 -35.828125 C 9.722656 -35.503906 9.78125 -35.210938 9.71875 -34.953125 C 9.65625 -34.234375 9.476562 -33.519531 9.1875 -32.8125 C 9.0625 -32.351562 8.945312 -31.882812 8.84375 -31.40625 C 8.070312 -28.125 8.300781 -24.878906 9.53125 -21.671875 C 10.300781 -19.671875 11.578125 -19.347656 13.359375 -20.703125 C 16.347656 -23.265625 18.878906 -26.234375 20.953125 -29.609375 C 21.597656 -30.578125 22.164062 -31.5625 22.65625 -32.5625 C 22.945312 -32.988281 23.203125 -33.425781 23.421875 -33.875 C 24.847656 -36.019531 26.8125 -36.945312 29.3125 -36.65625 C 32.0625 -36.488281 33.4375 -35.0625 33.4375 -32.375 C 33.375 -28.644531 33.242188 -24.96875 33.046875 -21.34375 C 32.953125 -19.625 32.875 -17.921875 32.8125 -16.234375 C 32.675781 -14.804688 32.800781 -13.945312 33.1875 -13.65625 C 33.582031 -13.363281 34.378906 -13.722656 35.578125 -14.734375 C 36.390625 -15.378906 37.1875 -16.007812 37.96875 -16.625 C 40.75 -18.863281 43.484375 -21.082031 46.171875 -23.28125 C 47.953125 -24.707031 49.878906 -25.160156 51.953125 -24.640625 Z M 4.375 66.25 C 7.164062 62.8125 9.75 57.796875 12.125 51.203125 C 14.507812 44.609375 16.46875 37.78125 18 30.71875 C 19.539062 23.65625 20.378906 17.742188 20.515625 12.984375 C 19.378906 13.203125 18.039062 14.503906 16.5 16.890625 C 14.957031 19.273438 13.335938 22.304688 11.640625 25.984375 C 9.941406 29.660156 8.265625 33.488281 6.609375 37.46875 C 6.316406 38.1875 5.707031 40.003906 4.78125 42.921875 C 3.863281 45.835938 2.925781 49.132812 1.96875 52.8125 C 1.007812 56.488281 0.296875 59.828125 -0.171875 62.828125 C -0.640625 65.828125 -0.566406 67.785156 0.046875 68.703125 C 0.660156 69.628906 2.101562 68.8125 4.375 66.25 Z M 4.375 66.25 "/></g></g><g style="fill:#000000;fill-opacity:1;"><g transform="translate(304.746521, 205.13354)"><path style="stroke:none" d="M 51.953125 -24.640625 C 52.609375 -24.515625 53.054688 -24.125 53.296875 -23.46875 C 53.535156 -22.820312 53.445312 -22.257812 53.03125 -21.78125 C 50.113281 -18.695312 46.9375 -15.726562 43.5 -12.875 C 40.289062 -10.125 37.113281 -7.207031 33.96875 -4.125 C 32.125 -2.125 31.054688 0.222656 30.765625 2.921875 C 30.703125 3.335938 30.671875 3.773438 30.671875 4.234375 C 29.890625 11.191406 28.84375 18.753906 27.53125 26.921875 C 26.21875 35.085938 24.273438 42.96875 21.703125 50.5625 C 19.128906 58.164062 15.640625 64.59375 11.234375 69.84375 C 9.804688 71.5 8.203125 72.753906 6.421875 73.609375 C 4.640625 74.472656 2.597656 74.820312 0.296875 74.65625 C -4.597656 74.175781 -7.796875 72.347656 -9.296875 69.171875 C -10.804688 65.992188 -11.0625 61.945312 -10.0625 57.03125 C -9.0625 52.125 -7.296875 46.851562 -4.765625 41.21875 C -2.234375 35.582031 0.597656 30.085938 3.734375 24.734375 C 6.878906 19.390625 9.835938 14.703125 12.609375 10.671875 C 15.378906 6.640625 17.5625 3.726562 19.15625 1.9375 C 21.644531 -0.75 22.957031 -3.84375 23.09375 -7.34375 C 23.21875 -8.769531 23.328125 -10.191406 23.421875 -11.609375 C 23.679688 -14.171875 23.863281 -17.023438 23.96875 -20.171875 C 22.957031 -19.460938 22.066406 -18.863281 21.296875 -18.375 C 19.992188 -17.4375 18.804688 -16.640625 17.734375 -15.984375 C 14.597656 -14.140625 11.210938 -13.609375 7.578125 -14.390625 C 4.859375 -15.160156 2.914062 -16.703125 1.75 -19.015625 C 0.582031 -21.335938 0.015625 -23.925781 0.046875 -26.78125 C 0.078125 -29.632812 0.597656 -32.175781 1.609375 -34.40625 C 2.253906 -35.832031 3.304688 -36.738281 4.765625 -37.125 C 6.222656 -37.519531 7.632812 -37.328125 9 -36.546875 C 9.1875 -36.390625 9.367188 -36.148438 9.546875 -35.828125 C 9.722656 -35.503906 9.78125 -35.210938 9.71875 -34.953125 C 9.65625 -34.234375 9.476562 -33.519531 9.1875 -32.8125 C 9.0625 -32.351562 8.945312 -31.882812 8.84375 -31.40625 C 8.070312 -28.125 8.300781 -24.878906 9.53125 -21.671875 C 10.300781 -19.671875 11.578125 -19.347656 13.359375 -20.703125 C 16.347656 -23.265625 18.878906 -26.234375 20.953125 -29.609375 C 21.597656 -30.578125 22.164062 -31.5625 22.65625 -32.5625 C 22.945312 -32.988281 23.203125 -33.425781 23.421875 -33.875 C 24.847656 -36.019531 26.8125 -36.945312 29.3125 -36.65625 C 32.0625 -36.488281 33.4375 -35.0625 33.4375 -32.375 C 33.375 -28.644531 33.242188 -24.96875 33.046875 -21.34375 C 32.953125 -19.625 32.875 -17.921875 32.8125 -16.234375 C 32.675781 -14.804688 32.800781 -13.945312 33.1875 -13.65625 C 33.582031 -13.363281 34.378906 -13.722656 35.578125 -14.734375 C 36.390625 -15.378906 37.1875 -16.007812 37.96875 -16.625 C 40.75 -18.863281 43.484375 -21.082031 46.171875 -23.28125 C 47.953125 -24.707031 49.878906 -25.160156 51.953125 -24.640625 Z M 4.375 66.25 C 7.164062 62.8125 9.75 57.796875 12.125 51.203125 C 14.507812 44.609375 16.46875 37.78125 18 30.71875 C 19.539062 23.65625 20.378906 17.742188 20.515625 12.984375 C 19.378906 13.203125 18.039062 14.503906 16.5 16.890625 C 14.957031 19.273438 13.335938 22.304688 11.640625 25.984375 C 9.941406 29.660156 8.265625 33.488281 6.609375 37.46875 C 6.316406 38.1875 5.707031 40.003906 4.78125 42.921875 C 3.863281 45.835938 2.925781 49.132812 1.96875 52.8125 C 1.007812 56.488281 0.296875 59.828125 -0.171875 62.828125 C -0.640625 65.828125 -0.566406 67.785156 0.046875 68.703125 C 0.660156 69.628906 2.101562 68.8125 4.375 66.25 Z M 4.375 66.25 "/></g></g><g style="fill:#000000;fill-opacity:1;"><g transform="translate(351.8965, 205.13354)"><path style="stroke:none" d=""/></g></g></g></svg>